<svg width="48" height="49" viewBox="0 0 48 49" fill="none" xmlns="http://www.w3.org/2000/svg">
<rect y="20.4023" width="27.9999" height="4.00816" fill="url(#paint0_linear_552_9007)"/>
<path fill-rule="evenodd" clip-rule="evenodd" d="M37.0924 29.5519L36.6408 28.4829C35.8763 26.6731 34.0902 25.4126 32.0171 25.4126C29.669 25.4126 27.6908 27.0318 27.1478 29.2207L26.7217 30.9379L25.0166 31.3981C23.2766 31.8677 21.9999 33.4631 21.9999 35.3495C21.9999 37.5275 23.6997 39.3098 25.8404 39.4342L25.9623 39.4413H36.0711L36.083 39.4413L36.0949 39.4413L36.1014 39.4413L36.2147 39.4413L36.3446 39.4345C38.937 39.2997 40.9997 37.1476 40.9997 34.5146C40.9997 32.5361 39.8359 30.8239 38.1438 30.0394L37.0924 29.5519ZM36.5001 42.4366V42.4474H36.1014L36.083 42.4474L36.0646 42.4474M28.6667 42.4474H25.6667V42.4353C21.9486 42.2193 18.9999 39.1295 18.9999 35.3495C18.9999 32.0697 21.2199 29.3095 24.2364 28.4954C25.1041 24.9982 28.2586 22.4065 32.0171 22.4065C35.3372 22.4065 38.186 24.4288 39.4035 27.3111C42.1171 28.5692 43.9997 31.3216 43.9997 34.5146C43.9997 38.7556 40.6785 42.2193 36.5001 42.4366" fill="#040531"/>
<path fill-rule="evenodd" clip-rule="evenodd" d="M39.8509 20.5049L39.868 19.0533C39.8685 19.0144 39.8687 18.9756 39.8687 18.9367C39.8687 13.6588 35.5988 9.38014 30.3316 9.38014C27.4272 9.38014 24.8282 10.6775 23.0744 12.736L21.8376 14.1877L20.0004 13.6835C19.3013 13.4917 18.5624 13.3883 17.7947 13.3883C13.1976 13.3883 9.4709 17.1226 9.4709 21.7291C9.4709 21.8913 9.47549 22.0522 9.48451 22.2115L9.60502 24.3412L7.63867 25.1585C4.9101 26.2925 2.99999 28.9854 2.99999 32.1184C2.99999 36.2773 6.36455 39.6487 10.5149 39.6487C10.5594 39.6487 10.6037 39.6483 10.6477 39.6476L13.6993 39.5949V39.6485H31.5673V39.542L34.6653 39.6435C34.7693 39.6469 34.8738 39.6486 34.9787 39.6486C40.2783 39.6486 44.7358 35.1774 44.7358 29.4593C44.7358 26.1748 43.2529 23.2777 40.9748 21.421L39.8509 20.5049ZM10.6993 42.6546V42.6532C10.6589 42.6539 10.6184 42.6544 10.5778 42.6546C10.5569 42.6548 10.5359 42.6548 10.5149 42.6548C10.494 42.6548 10.4731 42.6548 10.4522 42.6546C10.4116 42.6544 10.3711 42.6539 10.3306 42.6532C4.60841 42.5547 0 37.8758 0 32.1184C0 27.7281 2.67959 23.9651 6.48933 22.3817C6.47711 22.1657 6.47092 21.9482 6.47092 21.7291C6.47092 15.4624 11.5407 10.3822 17.7947 10.3822C18.8326 10.3822 19.8379 10.5221 20.7928 10.7841C23.0923 8.08519 26.5125 6.37402 30.3316 6.37402C37.2557 6.37402 42.8687 11.9985 42.8687 18.9367C42.8687 18.9875 42.8684 19.0382 42.8678 19.0889C45.8324 21.5051 47.7357 25.2523 47.7357 29.4593C47.7357 36.6045 42.2453 42.4233 35.3902 42.648C35.2692 42.652 35.1477 42.6542 35.0258 42.6546C35.0101 42.6547 34.9944 42.6547 34.9787 42.6547C34.9631 42.6547 34.9474 42.6547 34.9317 42.6546C34.8098 42.6542 34.6883 42.652 34.5673 42.648L34.5671 42.6546H10.6993Z" fill="#040531"/>
<defs>
<linearGradient id="paint0_linear_552_9007" x1="27.9999" y1="20.4023" x2="0" y2="20.4023" gradientUnits="userSpaceOnUse">
<stop stop-color="#1A86FF"/>
<stop offset="1" stop-color="#1A86FF" stop-opacity="0.4"/>
</linearGradient>
</defs>
</svg>
